# xmcd
#
# Track frame offsets: 
#        150
#        13867
#        31655
#        48512
#        65882
#        82935
#        103572
#        122312
#        141320
#        157947
#        178235
#        195400
#        208892
#        239751
#
# Disc length: 3969 seconds
#
# Revision: 6
# Processed by: cddbd v1.5PL3 Copyright (c) Steve Scherf et al.
# Submitted via: ExactAudioCopy v0.95a3
#
DISCID=c00f7f0e
DTITLE=Jamie O'Neal - Shiver
DYEAR=2000
DGENRE=Country
TTITLE0=When I Think About Angels
TTITLE1=There Is No Arizona
TTITLE2=Where We Belong
TTITLE3=No More Protecting My Heart
TTITLE4=She Hasn't Heard It Yet
TTITLE5=You Rescued Me
TTITLE6=Shiver
TTITLE7=The Only Thing Wrong
TTITLE8=I'm Still Waiting
TTITLE9=I'm Not Gonna Do Anything Without You (Duet With  Mark Wills)
TTITLE10=Sanctuary
TTITLE11=Frantic
TTITLE12=To Be With You
TTITLE13=DATA
EXTD=
EXTT0=
EXTT1=
EXTT2=
EXTT3=
EXTT4=
EXTT5=
EXTT6=
EXTT7=
EXTT8=
EXTT9=
EXTT10=
EXTT11=
EXTT12=
EXTT13=
PLAYORDER=
